<svg xmlns="http://www.w3.org/2000/svg" version="1.1" xmlns:xlink="http://www.w3.org/1999/xlink" xmlns:svgjs="http://svgjs.dev/svgjs" width="100%" height="100%" viewBox="0 0 1000 600"><rect width="1000" height="600" x="0" y="0" fill="#ee4e34"/><g><circle r="166.66666666666666" cx="348.9723765055338" cy="371.19460749987513" fill="#fcedda" transform="matrix(0.6856614836580665,0,0,0.6856614836580665,0,45.48615665921767)"/><path d="M278.72589423541257 307.6089539731378L276.40781906960717 307.6089539731378L276.40781906960717 296.1946344858176L341.25523826492247 296.1946344858176Q359.8585250386011 296.1946344858176 374.6472577419671 301.0655266063706Q389.4359904453331 305.9070760033059 399.88200005326627 315.32609028461644Q410.3280096611994 324.7157618423091 415.93246987219726 338.65355556075923Q421.5369300831951 352.59134927920934 421.5369300831951 370.54909613329664L421.5369300831951 370.54909613329664Q421.5369300831951 388.30144392205943 415.93246987219726 402.3566085349807Q410.3280096611994 416.411773147902 399.88200005326627 426.24158555986156Q389.4359904453331 436.0420552482033 374.6472577419671 441.11834643408093Q359.8585250386011 446.19463761995854 341.25523826492247 446.19463761995854L341.25523826492247 446.19463761995854L276.40781906960717 446.19463761995854L276.40781906960717 434.57491906731383L278.72589423541257 434.57491906731383Q286.5310587177446 434.57491906731383 291.6073499036222 433.10778288642433Q296.6836410894999 431.61130398191705 296.6836410894999 426.97515365030625L296.6836410894999 426.97515365030625L296.6836410894999 315.2087193901453Q296.6836410894999 310.777968123859 291.6073499036222 309.19346104849836Q286.5310587177446 307.6089539731378 278.72589423541257 307.6089539731378L278.72589423541257 307.6089539731378ZM341.25523826492247 308.8706910887027L341.25523826492247 308.8706910887027L316.3139231898012 308.8706910887027L316.3139231898012 433.31318195174885L341.25523826492247 433.31318195174885Q355.6331728376394 433.31318195174885 366.6073514706927 429.41059971058286Q377.5815301037461 425.47867474579897 385.09326734990026 417.5561393689958Q392.6050045960544 409.63360399219255 396.50758683722046 397.8084863742233Q400.4101690783865 385.98336875625404 400.4101690783865 370.54909613329664L400.4101690783865 370.54909613329664Q400.4101690783865 354.9387671686325 396.50758683722046 343.3190486159878Q392.6050045960544 331.6993300633431 385.09326734990026 324.07022192271774Q377.5815301037461 316.4704565057102 366.6073514706927 312.6852451590153Q355.6331728376394 308.8706910887027 341.25523826492247 308.8706910887027Z " fill="#ee4e34" transform="matrix(0.6856614836580665,0,0,0.6856614836580665,0,45.48615665921767)"/><path d="M639.0621156257507 420.73068250224145L598.9723714854943 420.73068250224145L598.9723714854943 411.695088489981L600.774926856627 411.695088489981Q604.8820150440181 411.695088489981 608.0079654977546 411.1931110448554Q611.1339159514912 410.7139507563265 612.9364713226239 409.39055567372264Q614.7390266937566 408.0899777477155 614.7390266937566 405.78544493145716L614.7390266937566 405.78544493145716L614.7390266937566 318.8748954549422Q614.7390266937566 316.41064254250756 612.9364713226239 315.17851608629024Q611.1339159514912 313.94638963007293 608.0079654977546 313.4444121849473Q604.8820150440181 312.96525189641835 600.774926856627 312.96525189641835L600.774926856627 312.96525189641835L598.9723714854943 312.96525189641835L598.9723714854943 304.08937798033423L639.2218357219269 304.08937798033423L671.9188211248794 405.62572483528083L669.2720309596718 405.94516502763344L702.7904340001026 304.08937798033423L742.0587605028808 304.08937798033423L742.0587605028808 312.96525189641835L740.256205131748 312.96525189641835Q736.3088370405331 312.96525189641835 733.1144351170068 313.4444121849473Q729.8972160368837 313.94638963007293 728.094660665751 315.17851608629024Q726.2921052946183 316.41064254250756 726.2921052946183 318.8748954549422L726.2921052946183 318.8748954549422L726.2921052946183 405.78544493145716Q726.2921052946183 408.0899777477155 728.094660665751 409.39055567372264Q729.8972160368837 410.7139507563265 733.1144351170068 411.1931110448554Q736.3088370405331 411.695088489981 740.256205131748 411.695088489981L740.256205131748 411.695088489981L742.0587605028808 411.695088489981L742.0587605028808 420.73068250224145L697.0405105377549 420.73068250224145L697.0405105377549 411.695088489981L698.5236257165351 411.695088489981Q701.3073188213224 411.695088489981 704.1822805524962 411.5353683938047Q707.0572422836699 411.3756482976284 709.1107863773655 411.03339094867914Q711.164330471061 410.7139507563265 711.164330471061 410.2119733112009L711.164330471061 410.2119733112009L711.164330471061 307.3750485302471L712.8071657460175 306.71335098894525L673.5616563998359 421.05012269459405L663.362387401148 421.05012269459405L624.0940608983698 306.71335098894525L625.7368961733262 307.05560833789445L625.7368961733262 410.2119733112009Q625.7368961733262 410.7139507563265 627.9729775197947 411.03339094867914Q630.1862417096665 411.3756482976284 633.2209235370167 411.5353683938047Q636.2556053643667 411.695088489981 638.4004180844488 411.695088489981L638.4004180844488 411.695088489981L639.0621156257507 411.695088489981L639.0621156257507 420.73068250224145ZM750.1132167814866 446.19462926406624L750.1132167814866 436.3376176143276L836.2023486205234 436.3376176143276L836.2023486205234 446.19462926406624L750.1132167814866 446.19462926406624ZM845.876823017489 312.96525189641835L844.0742676463562 312.96525189641835L844.0742676463562 304.08937798033423L894.523000881477 304.08937798033423Q908.9662610071357 304.08937798033423 920.4661079318307 307.8770259753727Q931.9659548565257 311.6418568138145 940.1116797615182 318.96616408132866Q948.2345875099138 326.2676541922462 952.5926644198678 337.10580357563936Q956.9507413298217 347.9439529590325 956.9507413298217 361.9080527961623L956.9507413298217 361.9080527961623Q956.9507413298217 375.71243253711566 952.5926644198678 386.64185054689534Q948.2345875099138 397.57126855667497 940.1116797615182 405.2150160165417Q931.9659548565257 412.83594631981185 920.4661079318307 416.78331441102665Q908.9662610071357 420.73068250224145 894.523000881477 420.73068250224145L894.523000881477 420.73068250224145L844.0742676463562 420.73068250224145L844.0742676463562 411.695088489981L845.876823017489 411.695088489981Q851.9690038287858 411.695088489981 855.9163719200005 410.55423066015015Q859.8409228546188 409.39055567372264 859.8409228546188 405.78544493145716L859.8409228546188 405.78544493145716L859.8409228546188 318.8748954549422Q859.8409228546188 315.429504808853 855.9163719200005 314.19737835263567Q851.9690038287858 312.96525189641835 845.876823017489 312.96525189641835L845.876823017489 312.96525189641835ZM894.523000881477 313.94638963007293L894.523000881477 313.94638963007293L875.1284177743523 313.94638963007293L875.1284177743523 410.7139507563265L894.523000881477 410.7139507563265Q905.6805904572227 410.7139507563265 914.2370241809542 407.6792689289764Q922.7706407480891 404.6217699450297 928.6118328368232 398.461137663943Q934.4302077689605 392.3005053828564 937.4648895963105 383.10519127441967Q940.5223885802573 373.9098771659829 940.5223885802573 361.9080527961623L940.5223885802573 361.9080527961623Q940.5223885802573 349.7693254867619 937.4648895963105 340.7337314745015Q934.4302077689605 331.69813746224105 928.6118328368232 325.7656767471206Q922.7706407480891 319.85603318859677 914.2370241809542 316.91261998763315Q905.6805904572227 313.94638963007293 894.523000881477 313.94638963007293ZM1032.680884073994 367.01909587380453L1032.680884073994 367.01909587380453L1032.680884073994 375.71243253711566Q1022.6641523280792 377.03582761971944 1015.4311136869516 378.67866289467594Q1008.1980750458239 380.3214981696323 1003.429289317131 382.2837736369414Q998.6605035884379 384.2688662608471 995.8768104836506 386.73311917328175Q993.0931173788633 389.19737208571644 991.9294423924358 392.3005053828564Q990.7885845626049 395.42645583659294 990.7885845626049 399.0543837354551L990.7885845626049 399.0543837354551Q990.7885845626049 403.64063221137513 992.6824085601243 406.7665826651117Q994.5534154010468 409.89253311884823 998.0216232037326 411.4440997674182Q1001.4670138498218 413.0184835725848 1006.0532623257419 413.0184835725848L1006.0532623257419 413.0184835725848Q1011.3240254995605 413.0184835725848 1015.7505538793042 410.55423066015015Q1020.1998994156445 408.0899777477155 1024.3069876030356 403.16147192284615Q1028.4140757904268 398.2329660979769 1032.3386267250448 390.8402073606729L1032.3386267250448 390.8402073606729L1032.5211639778179 400.5146817576386Q1029.235493427905 407.2685601102373 1024.8774165179511 412.1970659351066Q1020.5193396079972 417.1255717599759 1015.0204048682124 419.81799623837674Q1009.5214701284276 422.53323787337416 1002.6078716796526 422.53323787337416L1002.6078716796526 422.53323787337416Q994.7359526538198 422.53323787337416 988.6437718425229 419.81799623837674Q982.5744081878228 417.1255717599759 979.1290175417336 411.85480858615733Q975.6608097390477 406.60686256893536 975.6608097390477 399.2141038316314L975.6608097390477 399.2141038316314Q975.6608097390477 392.3005053828564 978.7867601927843 387.21227946181074Q981.9127106465208 382.1240535407651 988.7350404689095 378.3364055457267Q995.557370291298 374.5715747072848 1006.3955196746911 371.7650644459009Q1017.2336690580843 368.98137134111363 1032.680884073994 367.01909587380453ZM1058.4642710281717 420.73068250224145L1032.3386267250448 420.73068250224145L1030.376351257736 401.67835674406604L1029.5549336202575 400.6972190104115L1029.5549336202575 357.80096460877115Q1029.5549336202575 351.57188085789466 1027.9120983453013 347.7842328628562Q1026.2692630703448 344.0194020244144 1022.4131636055165 342.37656674945794Q1018.5570641406881 340.7337314745015 1011.9857230408624 340.7337314745015L1011.9857230408624 340.7337314745015Q1002.1287113911237 340.7337314745015 995.8768104836506 343.5174245792888Q989.6249095761775 346.3011176840761 986.5217762790376 349.4270681378126L986.5217762790376 349.4270681378126Q986.5217762790376 348.12649021180545 987.1606566637429 346.7118265028152Q987.8223542050448 345.31997995042155 988.9860291914722 344.08785349420424Q990.126887021303 342.85572703798687 991.6784536698731 342.0343094005087Q993.2528374750395 341.2128917630304 995.2151129423487 340.8934515706778L995.2151129423487 340.8934515706778L995.2151129423487 359.9457773288532L980.77185281669 359.9457773288532L980.77185281669 339.91231383702325Q983.0535684763518 338.0869413092939 987.4116453863056 336.03339721559837Q991.7697222962595 333.9798531219028 998.1813432999089 332.42828647333283Q1004.5929643035583 330.87671982476286 1012.6246034255676 330.87671982476286L1012.6246034255676 330.87671982476286Q1019.1959445253933 330.87671982476286 1024.945867987741 332.17729775077004Q1030.6957914500886 333.5006928333738 1034.9854168902525 336.44410603433744Q1039.2522251738199 339.4103363918977 1041.7164780862545 344.1791221205907Q1044.1807309986893 348.9479078492837 1044.1807309986893 355.8386891414621L1044.1807309986893 355.8386891414621L1044.1807309986893 405.4431875825079Q1044.1807309986893 407.74772039876626 1045.8235662736456 409.07111548137004Q1047.466401548602 410.3716934073772 1050.4098147495658 410.9649394788893Q1053.376045107126 411.5353683938047 1057.6428533906933 412.01452868233366L1057.6428533906933 412.01452868233366L1058.4642710281717 412.1970659351066L1058.4642710281717 420.73068250224145ZM1065.697309669299 332.5195550997193L1095.4280647146916 332.5195550997193L1095.4280647146916 395.7687131855422Q1095.4280647146916 401.0166592027642 1096.819911267085 404.5533184752398Q1098.2345749760752 408.0899777477155 1101.2692568034254 409.80126449246177Q1104.3039386307755 411.5353683938047 1109.5518846479977 411.5353683938047L1109.5518846479977 411.5353683938047Q1114.9823679179924 411.5353683938047 1120.0021423692483 409.39055567372264Q1124.9990996639074 407.2685601102373 1129.8591540189868 402.9789346700732Q1134.6963912174697 398.7121263865058 1139.4651769461627 392.14078528668006L1139.4651769461627 392.14078528668006L1139.4651769461627 401.0166592027642Q1134.8561113136461 407.90744049494253 1129.676616766214 412.6762262236355Q1124.5199393753783 417.44501195232857 1118.587478660258 419.9092648647632Q1112.6778351017342 422.37351777719783 1105.7870538095558 422.37351777719783L1105.7870538095558 422.37351777719783Q1098.0520377233024 422.37351777719783 1092.3933828873414 419.6582761422004Q1086.7347280513804 416.943034507203 1083.76849769382 411.3756482976284Q1080.8022673362598 405.78544493145716 1080.8022673362598 397.57126855667497L1080.8022673362598 397.57126855667497L1080.8022673362598 348.76537059651076Q1080.8022673362598 345.1602598542452 1077.6991340391198 343.6771446754651Q1074.5731835853833 342.194029496685 1068.161562581734 341.37261185920676L1068.161562581734 341.37261185920676L1065.697309669299 341.0531716668541L1065.697309669299 332.5195550997193ZM1119.591433550509 332.5195550997193L1151.1247439670342 332.5195550997193L1151.1247439670342 405.4431875825079Q1151.1247439670342 407.74772039876626 1152.7675792419905 409.07111548137004Q1154.410414516947 410.3716934073772 1157.445096344297 411.03339094867914Q1160.479778171647 411.695088489981 1164.5868663590381 412.01452868233366L1164.5868663590381 412.01452868233366L1165.5908212492895 412.1970659351066L1165.5908212492895 420.73068250224145L1139.1229195972135 420.73068250224145L1137.1606441299043 401.51863664788976L1136.4989465886024 400.5146817576386L1136.4989465886024 348.76537059651076Q1136.4989465886024 345.1602598542452 1133.304544665076 343.6771446754651Q1130.0873255849529 342.194029496685 1123.5159844851273 341.5551491119797L1123.5159844851273 341.5551491119797L1119.591433550509 341.0531716668541L1119.591433550509 332.5195550997193ZM1261.8564049304175 296.1946417979047L1261.8564049304175 405.4431875825079Q1261.8564049304175 409.07111548137004 1265.5527842990693 410.2119733112009Q1269.2491636677212 411.3756482976284 1275.3185273224215 412.01452868233366L1275.3185273224215 412.01452868233366L1276.1399449598998 412.1970659351066L1276.1399449598998 420.73068250224145L1249.8545805605966 420.73068250224145L1247.8923050932879 401.51863664788976L1247.2306075519857 401.33609939511683L1247.2306075519857 312.46327445129276Q1247.2306075519857 309.9990215388581 1245.8387609995923 308.76689508264076Q1244.4469144471984 307.53476862642344 1241.5719527160247 306.71335098894525Q1238.696990984851 305.891933351467 1234.2476454485106 305.0705157139888L1234.2476454485106 305.0705157139888L1232.604810173554 304.75107552163615L1232.604810173554 296.1946417979047L1261.8564049304175 296.1946417979047ZM1218.3212701440718 330.87671982476286L1218.3212701440718 330.87671982476286Q1225.5543087851995 330.87671982476286 1231.2129636211605 333.34097273719755Q1236.8716184571215 335.8052256496322 1241.5719527160247 340.39147412555224Q1246.2494698183311 345.0005397580689 1250.196837909546 351.8913210502473L1250.196837909546 351.8913210502473L1249.6948604644206 362.7294704336405Q1245.5877722770294 355.3367116963365 1240.9787066445126 350.49947449785367Q1236.3924581685926 345.6622372993708 1231.0532435249843 343.35770448311246Q1225.7140288813757 341.0531716668541 1219.14268778155 341.0531716668541L1219.14268778155 341.0531716668541Q1212.7310667779007 341.0531716668541 1207.8025609530312 343.4261559529023Q1202.874055128162 345.82195739554714 1199.5883845782491 350.4082058714672Q1196.3027140283361 355.01727150398386 1194.6598787533799 361.8396013263724Q1193.0170434784234 368.66193114876097 1193.0170434784234 377.3552678120721L1193.0170434784234 377.3552678120721Q1193.0170434784234 385.7291642830306 1194.5686101269935 392.3005053828564Q1196.1429939321597 398.87184648268214 1199.1776757595098 403.38964348881234Q1202.21235758686 407.90744049494253 1206.981143315553 410.2119733112009Q1211.749929044246 412.51650612745925 1218.1615500478954 412.51650612745925L1218.1615500478954 412.51650612745925Q1225.0523313400738 412.51650612745925 1230.6425347062452 410.14352184141103Q1236.2327380724164 407.74772039876626 1240.9787066445126 402.9104832002834Q1245.747492373206 398.05042884520395 1250.014300656773 390.8402073606729L1250.014300656773 390.8402073606729L1250.196837909546 400.85693910658784Q1245.907212469382 407.74772039876626 1241.1612438972854 412.6077747538457Q1236.3924581685926 417.44501195232857 1230.3915459836824 420.00053349114967Q1224.3906337987721 422.53323787337416 1216.8381549652916 422.53323787337416L1216.8381549652916 422.53323787337416Q1204.357170306942 422.53323787337416 1195.6410164870342 416.8745830374131Q1186.947679823723 411.1931110448554 1182.24734556482 401.0166592027642Q1177.5698284625134 390.8402073606729 1177.5698284625134 377.3552678120721L1177.5698284625134 377.3552678120721Q1177.5698284625134 363.73342532389165 1182.429882817593 353.28316760264096Q1187.2671200160758 342.85572703798687 1196.4624341245126 336.85481485307656Q1205.6577482329492 330.87671982476286 1218.3212701440718 330.87671982476286Z " fill="#fcedda" transform="matrix(0.6856614836580665,0,0,0.6856614836580665,0,45.48615665921767)"/></g></svg>